<?xml version="1.0" encoding="utf-8"?>
<svg version="1.1" xmlns:xlink="http://www.w3.org/1999/xlink" width="44px" height="28px" xmlns="http://www.w3.org/2000/svg">
  <defs>
    <mask fill="white" id="clip35">
      <path d="M 0 23.3333333333333  L 0 4.66666666666667  C 0 2.05333333333359  1.07555555555569 0  2.44444444444444 0  L 30.4682539682541 0  L 41.5555555555556 0  C 42.9244444444443 0  44 2.05333333333359  44 4.66666666666667  L 44 23.3333333333333  C 44 25.9466666666664  42.9244444444443 28  41.5555555555556 28  L 2.44444444444444 28  C 1.07555555555569 28  0 25.9466666666664  0 23.3333333333333  Z " fill-rule="evenodd" />
    </mask>
  </defs>
  <g transform="matrix(1 0 0 1 -560 -216 )">
    <path d="M 0 23.3333333333333  L 0 4.66666666666667  C 0 2.05333333333359  1.07555555555569 0  2.44444444444444 0  L 30.4682539682541 0  L 41.5555555555556 0  C 42.9244444444443 0  44 2.05333333333359  44 4.66666666666667  L 44 23.3333333333333  C 44 25.9466666666664  42.9244444444443 28  41.5555555555556 28  L 2.44444444444444 28  C 1.07555555555569 28  0 25.9466666666664  0 23.3333333333333  Z " fill-rule="nonzero" fill="#f7f7f7" stroke="none" transform="matrix(1 0 0 1 560 216 )" />
    <path d="M 0 23.3333333333333  L 0 4.66666666666667  C 0 2.05333333333359  1.07555555555569 0  2.44444444444444 0  L 30.4682539682541 0  L 41.5555555555556 0  C 42.9244444444443 0  44 2.05333333333359  44 4.66666666666667  L 44 23.3333333333333  C 44 25.9466666666664  42.9244444444443 28  41.5555555555556 28  L 2.44444444444444 28  C 1.07555555555569 28  0 25.9466666666664  0 23.3333333333333  Z " stroke-width="2" stroke="#ebebeb" fill="none" transform="matrix(1 0 0 1 560 216 )" mask="url(#clip35)" />
  </g>
</svg>