<?xml version="1.0" encoding="utf-8"?>
<svg version="1.1" xmlns:xlink="http://www.w3.org/1999/xlink" width="44px" height="28px" xmlns="http://www.w3.org/2000/svg">
  <defs>
    <mask fill="white" id="clip40">
      <path d="M 0 23.3333333333333  L 0 4.66666666666667  C 0 2.05333333333359  0.911058823529525 0  2.07058823529412 0  L 12.2756302521009 0  L 24.1075630252103 0  L 41.9294117647059 0  C 43.0889411764705 0  44 2.05333333333359  44 4.66666666666667  L 44 23.3333333333333  C 44 25.9466666666664  43.0889411764705 28  41.9294117647059 28  L 27.0655462184874 28  L 2.07058823529412 28  C 0.911058823529525 28  0 25.9466666666664  0 23.3333333333333  Z " fill-rule="evenodd" />
    </mask>
  </defs>
  <g transform="matrix(1 0 0 1 -447 -821 )">
    <path d="M 0 23.3333333333333  L 0 4.66666666666667  C 0 2.05333333333359  0.911058823529525 0  2.07058823529412 0  L 12.2756302521009 0  L 24.1075630252103 0  L 41.9294117647059 0  C 43.0889411764705 0  44 2.05333333333359  44 4.66666666666667  L 44 23.3333333333333  C 44 25.9466666666664  43.0889411764705 28  41.9294117647059 28  L 27.0655462184874 28  L 2.07058823529412 28  C 0.911058823529525 28  0 25.9466666666664  0 23.3333333333333  Z " fill-rule="nonzero" fill="#f7f7f7" stroke="none" transform="matrix(1 0 0 1 447 821 )" />
    <path d="M 0 23.3333333333333  L 0 4.66666666666667  C 0 2.05333333333359  0.911058823529525 0  2.07058823529412 0  L 12.2756302521009 0  L 24.1075630252103 0  L 41.9294117647059 0  C 43.0889411764705 0  44 2.05333333333359  44 4.66666666666667  L 44 23.3333333333333  C 44 25.9466666666664  43.0889411764705 28  41.9294117647059 28  L 27.0655462184874 28  L 2.07058823529412 28  C 0.911058823529525 28  0 25.9466666666664  0 23.3333333333333  Z " stroke-width="2" stroke="#ebebeb" fill="none" transform="matrix(1 0 0 1 447 821 )" mask="url(#clip40)" />
  </g>
</svg>