<?xml version="1.0" encoding="utf-8"?>
<svg version="1.1" xmlns:xlink="http://www.w3.org/1999/xlink" width="44px" height="24px" xmlns="http://www.w3.org/2000/svg">
  <defs>
    <mask fill="white" id="clip43">
      <path d="M 0 20  L 0 4  C 0 1.76000000000022  1.07555555555569 0  2.44444444444444 0  L 30.4682539682541 0  L 41.5555555555556 0  C 42.9244444444443 0  44 1.76000000000022  44 4  L 44 20  C 44 22.2399999999998  42.9244444444443 24  41.5555555555556 24  L 2.44444444444444 24  C 1.07555555555569 24  0 22.2399999999998  0 20  Z " fill-rule="evenodd" />
    </mask>
  </defs>
  <g transform="matrix(1 0 0 1 -398 -201 )">
    <path d="M 0 20  L 0 4  C 0 1.76000000000022  1.07555555555569 0  2.44444444444444 0  L 30.4682539682541 0  L 41.5555555555556 0  C 42.9244444444443 0  44 1.76000000000022  44 4  L 44 20  C 44 22.2399999999998  42.9244444444443 24  41.5555555555556 24  L 2.44444444444444 24  C 1.07555555555569 24  0 22.2399999999998  0 20  Z " fill-rule="nonzero" fill="#f7f7f7" stroke="none" transform="matrix(1 0 0 1 398 201 )" />
    <path d="M 0 20  L 0 4  C 0 1.76000000000022  1.07555555555569 0  2.44444444444444 0  L 30.4682539682541 0  L 41.5555555555556 0  C 42.9244444444443 0  44 1.76000000000022  44 4  L 44 20  C 44 22.2399999999998  42.9244444444443 24  41.5555555555556 24  L 2.44444444444444 24  C 1.07555555555569 24  0 22.2399999999998  0 20  Z " stroke-width="2" stroke="#ebebeb" fill="none" transform="matrix(1 0 0 1 398 201 )" mask="url(#clip43)" />
  </g>
</svg>