<?xml version="1.0" encoding="utf-8"?>
<svg version="1.1" xmlns:xlink="http://www.w3.org/1999/xlink" width="44px" height="24px" xmlns="http://www.w3.org/2000/svg">
  <defs>
    <mask fill="white" id="clip45">
      <path d="M 0 20  L 0 4  C 0 1.76000000000022  0.911058823529525 0  2.07058823529412 0  L 12.2756302521009 0  L 24.1075630252103 0  L 41.9294117647059 0  C 43.0889411764705 0  44 1.76000000000022  44 4  L 44 20  C 44 22.2399999999998  43.0889411764705 24  41.9294117647059 24  L 27.0655462184874 24  L 2.07058823529412 24  C 0.911058823529525 24  0 22.2399999999998  0 20  Z " fill-rule="evenodd" />
    </mask>
  </defs>
  <g transform="matrix(1 0 0 1 -309 -717 )">
    <path d="M 0 20  L 0 4  C 0 1.76000000000022  0.911058823529525 0  2.07058823529412 0  L 12.2756302521009 0  L 24.1075630252103 0  L 41.9294117647059 0  C 43.0889411764705 0  44 1.76000000000022  44 4  L 44 20  C 44 22.2399999999998  43.0889411764705 24  41.9294117647059 24  L 27.0655462184874 24  L 2.07058823529412 24  C 0.911058823529525 24  0 22.2399999999998  0 20  Z " fill-rule="nonzero" fill="#f7f7f7" stroke="none" transform="matrix(1 0 0 1 309 717 )" />
    <path d="M 0 20  L 0 4  C 0 1.76000000000022  0.911058823529525 0  2.07058823529412 0  L 12.2756302521009 0  L 24.1075630252103 0  L 41.9294117647059 0  C 43.0889411764705 0  44 1.76000000000022  44 4  L 44 20  C 44 22.2399999999998  43.0889411764705 24  41.9294117647059 24  L 27.0655462184874 24  L 2.07058823529412 24  C 0.911058823529525 24  0 22.2399999999998  0 20  Z " stroke-width="2" stroke="#ebebeb" fill="none" transform="matrix(1 0 0 1 309 717 )" mask="url(#clip45)" />
  </g>
</svg>